<?xml version="1.0" standalone="no"?>
<!DOCTYPE svg PUBLIC "-//W3C//DTD SVG 20010904//EN"
 "http://www.w3.org/TR/2001/REC-SVG-20010904/DTD/svg10.dtd">
<svg version="1.0" xmlns="http://www.w3.org/2000/svg"
 width="150.000000pt" height="150.000000pt" viewBox="0 0 150.000000 150.000000"
 preserveAspectRatio="xMidYMid meet">

<g transform="translate(0.000000,150.000000) scale(0.100000,-0.100000)"
fill="#000000" stroke="none" stroke-width="30">
<path d="M456 1184 c-8 -21 3 -37 140 -210 63 -79 114 -146 114 -149 0 -4 -9
-18 -20 -32 -26 -34 -25 -55 5 -83 14 -13 25 -27 25 -31 0 -4 -43 -60 -95
-124 -107 -132 -117 -147 -109 -169 15 -40 39 -28 132 71 51 54 102 112 113
128 25 36 -14 -4 -133 -135 -67 -74 -78 -82 -93 -70 -9 7 -14 19 -11 26 8 22
197 254 206 254 5 0 82 -81 171 -180 163 -181 197 -207 213 -164 8 21 -5 40
-137 204 -61 74 -115 141 -120 147 -6 9 -1 23 17 44 27 32 27 35 -10 84 l-23
30 91 115 c122 156 123 157 108 175 -25 30 -50 14 -150 -97 -56 -62 -105 -114
-110 -116 -4 -2 -68 65 -142 147 -133 151 -166 176 -182 135z m231 -205 c104
-116 191 -217 196 -224 10 -18 -38 -74 -51 -60 -32 34 -372 467 -372 474 0 12
12 21 26 21 8 0 98 -95 201 -211z"/>
</g>
</svg>
