<?xml version="1.0" standalone="no"?><!DOCTYPE svg PUBLIC "-//W3C//DTD SVG 1.1//EN" "http://www.w3.org/Graphics/SVG/1.1/DTD/svg11.dtd"><svg class="icon" width="200px" height="200.00px" viewBox="0 0 1024 1024" version="1.1" xmlns="http://www.w3.org/2000/svg"><path d="M503.073331 412.293591L291.610968 658.981015c-9.408283 10.046702-15.254859 27.664833-9.990701 40.298813a34.474637 34.474637 0 0 0 32.189769 21.336642c7.997041 0 14.549238-2.800084 23.139896-11.435544L598.567405 437.998365a44.599742 44.599742 0 0 0 0.302409-62.878692l-95.796483 37.185119z" fill="#AA142D" /><path d="M498.694 407.152637l195.681088-247.527449c10.920329-14.560438 16.083684-22.176667 10.920329-34.575441a37.655533 37.655533 0 0 0-32.805787-23.151096 29.479287 29.479287 0 0 0-22.019863 8.120244L400.310239 375.108472c-19.062974 19.062974-19.029373 43.726116 0.112003 62.867492l349.876129 366.900642a28.661663 28.661663 0 0 0 22.983092 8.736263c14.157226 0 23.330302-8.333051 29.479287-20.642222 5.264158-12.645181-0.560017-25.167157-10.270709-38.282752L498.7164 407.152637" fill="#BDB9B4" /><path d="M598.858614 375.108472L257.192332 15.555252S244.647954 0.322794 231.386755 0.009184A33.713015 33.713015 0 0 0 199.622599 20.416198c-5.152155 12.387573-1.456044 21.090235 9.878698 37.319523l293.560834 354.55787 95.796483-37.185119z" fill="#AA142D" /><path d="M581.173282 1004.197804a10.987531 10.987531 0 0 1-9.464285-5.499365l-42.606082-70.75253-42.85249 70.75253a10.752324 10.752324 0 0 1-9.486685 5.488165 11.648351 11.648351 0 0 1-9.9683-17.707733l49.583892-79.477592-40.567621-64.995556c-1.075232-1.904057-1.680051-4.032121-1.758453-6.227387a11.648351 11.648351 0 0 1 11.726753-11.446745 10.449914 10.449914 0 0 1 9.464285 5.219357l33.869819 57.054517 33.645813-57.054517a10.046702 10.046702 0 0 1 9.206677-5.219357 11.334741 11.334741 0 0 1 11.715552 11.446745c0 2.161665-0.504015 4.300929-1.500845 6.227387l-40.354814 65.029157 49.079877 79.466392c1.366441 1.792054 2.072062 3.98732 1.99366 6.227387a11.805155 11.805155 0 0 1-11.726753 11.469145zM365.096379 877.085179c5.107354 0 8.501056 3.404902 10.931529 9.486685a14.078824 14.078824 0 0 1 12.880388-9.486685h40.814028a11.144335 11.144335 0 0 1 11.177936 11.177936v21.482247a9.912298 9.912298 0 0 1-11.177936 11.177936 9.990701 9.990701 0 0 1-11.166736-11.177936v-10.30431h-28.91927a6.608199 6.608199 0 0 0-7.280219 7.537826v74.583045h27.440825a11.177936 11.177936 0 1 1 0 22.344672h-72.354177a11.177936 11.177936 0 0 1 0-22.344672h22.579879v-82.120871h-19.9366a11.189137 11.189137 0 0 1 0-22.355873h25.010353zM671.403197 877.073978a9.990701 9.990701 0 0 1 11.177936 11.177937v93.298808h27.698434a11.166736 11.166736 0 1 1 0 22.344672h-78.469561a11.177936 11.177936 0 1 1 0-22.355873h28.426455v-82.109671h-23.408704a11.177936 11.177936 0 0 1 0-22.355873h34.57544z m11.581149-48.318254a16.072484 16.072484 0 1 1-15.960481-15.96048 16.195687 16.195687 0 0 1 15.960481 15.96048zM852.210238 888.251915c0.022401 1.500845-0.224007 2.97929-0.739222 4.379332l-40.802828 104.465543a10.203507 10.203507 0 0 1-10.214707 6.809805h-16.27409a10.125105 10.125105 0 0 1-10.449915-6.809805l-41.295642-104.465543a8.915468 8.915468 0 0 1-0.97443-4.368132 11.200337 11.200337 0 0 1 11.424344-11.177936 10.416313 10.416313 0 0 1 10.192307 7.280219l39.369185 99.122983 38.137147-99.122983a10.427514 10.427514 0 0 1 10.203507-7.280219 11.200337 11.200337 0 0 1 11.424344 11.177936zM263.699728 877.073978a21.325442 21.325442 0 0 1 22.512677 23.039094v103.771123H188.791873a13.193997 13.193997 0 0 1-14.112424-13.518807v-35.729075a22.647082 22.647082 0 0 1 19.197377-22.355873l69.946105-9.800295v-23.050294H186.047791a10.97633 10.97633 0 0 1-11.368342-11.177936 10.864327 10.864327 0 0 1 11.950759-11.177937H263.688527z m0.168005 104.465544v-36.468297l-66.832411 9.31868v27.149617h66.832411z" fill="#000000" /></svg>