<?xml version="1.0" standalone="no"?>
<!DOCTYPE svg PUBLIC "-//W3C//DTD SVG 20010904//EN"
 "http://www.w3.org/TR/2001/REC-SVG-20010904/DTD/svg10.dtd">
<svg version="1.0" xmlns="http://www.w3.org/2000/svg"
 width="200.000000pt" height="200.000000pt" viewBox="0 0 200.000000 200.000000"
 preserveAspectRatio="xMidYMid meet">

<g transform="translate(0.000000,200.000000) scale(0.100000,-0.100000)"
fill="#000000" stroke="none">
<path d="M416 1875 c-30 -45 -35 -35 141 -255 59 -74 113 -142 120 -150 7 -8
35 -44 63 -80 28 -36 56 -72 63 -80 7 -8 28 -35 47 -60 19 -24 43 -53 53 -64
17 -20 23 -62 9 -68 -4 -1 -22 -21 -40 -43 -50 -61 -43 -92 42 -183 28 -30 29
-35 17 -55 -15 -23 -206 -262 -228 -285 -7 -8 -26 -30 -41 -50 -15 -21 -29
-39 -32 -42 -3 -3 -25 -29 -50 -59 -38 -46 -45 -62 -45 -97 0 -50 9 -61 53
-70 30 -6 37 -2 90 52 31 33 95 102 142 154 105 117 155 172 208 230 l42 45
42 -45 c53 -58 103 -113 208 -230 47 -52 87 -97 90 -100 3 -3 43 -48 90 -100
47 -52 95 -106 107 -119 16 -18 33 -25 59 -25 42 0 64 23 64 65 0 25 -53 108
-114 177 -14 15 -75 90 -138 168 -62 77 -150 186 -195 242 -46 55 -83 104 -83
107 0 4 18 27 40 52 60 68 58 105 -10 182 l-48 55 21 31 c12 16 65 84 117 150
91 115 135 171 228 292 23 30 42 65 42 78 0 30 -28 63 -63 71 -24 5 -35 -1
-85 -52 -32 -33 -92 -97 -133 -144 -40 -47 -76 -87 -79 -90 -3 -3 -39 -43 -80
-90 -41 -47 -79 -88 -85 -92 -11 -8 -52 33 -175 172 -41 47 -77 87 -80 90 -3
3 -39 43 -80 90 -41 47 -77 87 -80 90 -3 3 -36 40 -73 83 -63 71 -72 77 -107
77 -29 0 -41 -6 -54 -25z m134 -52 c25 -26 79 -86 120 -133 41 -47 77 -87 80
-90 3 -3 39 -43 80 -90 41 -47 77 -87 80 -90 3 -3 39 -43 80 -90 41 -47 77
-87 80 -90 3 -3 39 -43 80 -90 41 -47 83 -94 93 -105 22 -25 31 -59 20 -78
-15 -27 -72 -87 -82 -87 -5 0 -27 21 -48 47 -21 27 -44 54 -51 61 -7 8 -25 30
-40 50 -15 21 -29 39 -32 42 -3 3 -21 25 -40 50 -19 25 -37 47 -40 50 -3 3
-17 21 -32 42 -15 20 -33 42 -40 50 -7 7 -25 29 -40 50 -15 20 -33 42 -40 50
-7 7 -29 34 -48 58 -19 25 -40 52 -47 60 -86 107 -224 282 -242 308 -27 38
-24 62 8 79 31 15 44 8 101 -54z m461 -1044 c44 -54 44 -53 17 -81 -13 -13
-57 -62 -98 -108 -41 -47 -82 -92 -90 -100 -8 -8 -53 -58 -100 -110 -47 -52
-90 -100 -95 -106 -6 -6 -20 -16 -32 -22 -18 -10 -25 -7 -47 15 -14 14 -26 30
-26 35 0 9 36 66 50 78 3 3 17 21 32 42 15 20 33 42 40 50 8 7 29 33 48 58 19
25 37 47 40 50 3 3 44 52 90 110 47 58 89 110 95 117 18 22 42 13 76 -28z"/>
</g>
</svg>
