<?xml version="1.0" standalone="no"?><!DOCTYPE svg PUBLIC "-//W3C//DTD SVG 1.1//EN" "http://www.w3.org/Graphics/SVG/1.1/DTD/svg11.dtd"><svg class="icon" width="200px" height="86.01px" viewBox="0 0 2381 1024" version="1.1" xmlns="http://www.w3.org/2000/svg"><path d="M2022.109852 0l-11.605929 10.713165 289.255449 330.32258L1848.020924 884.728858H551.727986l-460.666085-553.513514L371.389712 10.713165 359.783784 0 1.785527 408.885789 499.94769 1023.107236h1382.89102l498.162162-614.221447L2022.109852 0zM542.800349 896.334786l2.678291 2.678292h1310.577158l454.416739-547.264168 19.640802 22.319093-467.808195 580.296426H529.408893L57.136879 369.604185l23.211857-26.782912 462.451613 553.513513zM1874.803836 1007.930253H507.089799l-484.770706-598.1517 24.997385-28.56844 472.272014 586.545772 2.678291 2.678291h1347.180471l470.486486-583.86748 20.533566 23.211857-485.66347 598.1517z" fill="#B39277" /></svg>